<svg xmlns="http://www.w3.org/2000/svg" viewBox="0 0 59.13 57.16"><defs><style>.cls-1{fill:#b2b2b2;}.cls-2{fill:none;stroke:#b2b2b2;stroke-miterlimit:10;stroke-width:2px;}</style></defs><title>picto</title><g id="Calque_2" data-name="Calque 2"><g id="Calque_1-2" data-name="Calque 1"><g id="Calque_1-3" data-name="Calque 1"><path class="cls-1" d="M51.86,0H17.77A7.29,7.29,0,0,0,10.5,7.27v10.4h3V16.05H56.13V26.4a4.25,4.25,0,0,1-1.69,3.38c0,.17,0,.33,0,.49v2.9a7.29,7.29,0,0,0,4.67-6.77V7.27A7.29,7.29,0,0,0,51.86,0Zm4.27,9.67H13.5V7.27A4.27,4.27,0,0,1,17.77,3h34.1a4.27,4.27,0,0,1,4.27,4.27Z"/><path class="cls-1" d="M51.86,0H17.77A7.29,7.29,0,0,0,10.5,7.27v10.4h3V16.05H56.13V26.4a4.25,4.25,0,0,1-1.69,3.38c0,.17,0,.33,0,.49v2.9a7.29,7.29,0,0,0,4.67-6.77V7.27A7.29,7.29,0,0,0,51.86,0Zm4.27,9.67H13.5V7.27A4.27,4.27,0,0,1,17.77,3h34.1a4.27,4.27,0,0,1,4.27,4.27Z"/><path class="cls-1" d="M41.86,57.16H9.77A9.78,9.78,0,0,1,0,47.4V30.27A9.78,9.78,0,0,1,9.77,20.5h32.1a9.78,9.78,0,0,1,9.77,9.77V47.4A9.78,9.78,0,0,1,41.86,57.16ZM9.77,23.5A6.77,6.77,0,0,0,3,30.27V47.4a6.77,6.77,0,0,0,6.77,6.77h32.1a6.77,6.77,0,0,0,6.77-6.77V30.27a6.78,6.78,0,0,0-6.77-6.77Z"/><path class="cls-1" d="M51.86,0H17.77A7.29,7.29,0,0,0,10.5,7.27v10.4h3V16.05H56.13V26.4a4.25,4.25,0,0,1-1.69,3.38c0,.17,0,.33,0,.49v2.9a7.29,7.29,0,0,0,4.67-6.77V7.27A7.29,7.29,0,0,0,51.86,0Zm4.27,9.67H13.5V7.27A4.27,4.27,0,0,1,17.77,3h34.1a4.27,4.27,0,0,1,4.27,4.27Z"/><path class="cls-1" d="M41.86,57.16H9.77A9.78,9.78,0,0,1,0,47.4V30.27A9.78,9.78,0,0,1,9.77,20.5h32.1a9.78,9.78,0,0,1,9.77,9.77V47.4A9.78,9.78,0,0,1,41.86,57.16ZM9.77,23.5A6.77,6.77,0,0,0,3,30.27V47.4a6.77,6.77,0,0,0,6.77,6.77h32.1a6.77,6.77,0,0,0,6.77-6.77V30.27a6.78,6.78,0,0,0-6.77-6.77Z"/></g></g><g id="Calque_2-2" data-name="Calque 2"><path class="cls-1" d="M16.75,32v3.81H10.5V32h6.25m2-2H8.5v7.81H18.75V30Z"/><line class="cls-2" x1="20.75" y1="47.56" x2="42.03" y2="47.23"/></g></g></svg>