<?xml version="1.0" encoding="utf-8"?>
<!-- Generator: Adobe Illustrator 19.0.0, SVG Export Plug-In . SVG Version: 6.00 Build 0)  -->
<svg version="1.1" id="Layer_1" xmlns="http://www.w3.org/2000/svg" xmlns:xlink="http://www.w3.org/1999/xlink" x="0px" y="0px"
	 width="111.4px" height="34.7px" viewBox="-423 263.3 111.4 34.7" style="enable-background:new -423 263.3 111.4 34.7;"
	 xml:space="preserve">
<style type="text/css">
	.st0{fill:#4E5356;}
	.st1{fill:#F29024;}
</style>
<path class="st0" d="M-373.8,274.3v5h-3.7v-12h3.7v1.6c0.3-0.6,0.8-1.1,1.4-1.5c0.6-0.3,1.2-0.5,1.9-0.5c0.2,0,0.4,0,0.6,0
	c0.2,0,0.3,0.1,0.4,0.1l-1.2,3.8c0,0-0.1,0-0.2-0.1c-0.1,0-0.2,0-0.4,0c-0.2,0-0.5,0-0.8,0.1c-0.5,0.2-0.8,0.3-1.1,0.7
	c-0.3,0.4-0.4,1.2-0.5,1.9C-373.8,273.7-373.8,274-373.8,274.3z"/>
<path class="st0" d="M-356.8,270.5l-7.6,4.8c0.1,0.1,0.3,0.3,0.7,0.5c0.3,0.2,0.8,0.2,1.4,0.2c0.1,0,0.2,0,0.3,0
	c0.4,0,0.8-0.2,1.3-0.3c0.4-0.2,0.8-0.4,1.1-0.6c0.3-0.2,0.5-0.3,0.5-0.4l1.9,2.9c-0.2,0.1-0.5,0.3-0.9,0.6c-0.4,0.3-1,0.5-1.7,0.8
	c-0.7,0.3-1.5,0.4-2.3,0.4h-0.1c-1.2,0-2.3-0.3-3.3-0.8s-1.8-1.3-2.4-2.2c-0.6-1-0.9-2-0.9-3.2v-0.1c0-1,0.2-2,0.7-2.9
	s1.2-1.7,2-2.3c0.9-0.6,1.8-1,2.9-1.1c0.3,0,0.5,0,0.8,0c0.7,0,1.4,0.1,2.1,0.3c0.9,0.3,1.5,0.8,2.1,1.2c0.5,0.5,0.9,0.9,1.1,1.3
	C-357,270.1-356.8,270.4-356.8,270.5z M-365.5,273.1l4.3-2.7c-0.1-0.1-0.3-0.1-0.5-0.2c-0.2-0.1-0.6-0.1-0.9-0.1
	c-0.8,0-1.5,0.3-2.1,0.9C-365.2,271.5-365.5,272.3-365.5,273.1z"/>
<path class="st0" d="M-345,270.7v8.6h-3.4v-1c0,0-0.1,0.1-0.4,0.3c-0.3,0.2-0.6,0.4-1,0.5c-0.4,0.2-0.9,0.3-1.4,0.3h-0.1
	c-0.8,0-1.5-0.2-2.1-0.5c-0.7-0.3-1.2-0.8-1.6-1.5c-0.4-0.6-0.6-1.4-0.6-2.2c0-0.8,0.2-1.5,0.6-2.1c0.4-0.6,1-1.1,1.7-1.5
	c0.6-0.3,1.3-0.5,2.1-0.5c0.1,0,0.2,0,0.2,0c0.5,0,0.9,0.1,1.3,0.2c0.4,0.1,0.7,0.3,0.9,0.5l0.4,0.3c0-0.5,0-0.9-0.1-1.1
	c-0.1-0.4-0.3-0.8-0.7-1c-0.3-0.2-0.8-0.3-1.5-0.3h-0.1c-0.6,0-1.2,0.1-2,0.4c-0.8,0.3-1.2,0.5-1.3,0.6l0.7-3.4c0,0,0.3-0.1,0.8-0.2
	c0.5-0.1,1-0.2,1.5-0.3s1-0.1,1.4-0.1c0.1,0,0.2,0,0.2,0c0.8,0,1.5,0.1,2.2,0.4c0.7,0.3,1.3,0.7,1.8,1.3
	C-345.2,269.1-345,269.8-345,270.7z M-348.5,275.3c0-0.5-0.2-0.9-0.5-1.2c-0.3-0.3-0.8-0.4-1.2-0.4h-0.1c-0.5,0-0.9,0.2-1.2,0.4
	c-0.3,0.3-0.5,0.6-0.5,1v0.1c0,0.4,0.2,0.8,0.5,1c0.3,0.3,0.8,0.5,1.4,0.5c0.5,0,0.9-0.1,1.2-0.4
	C-348.7,276.1-348.5,275.8-348.5,275.3z"/>
<path class="st0" d="M-342.6,279.3v-16h3.8v16H-342.6L-342.6,279.3z"/>
<g>
	<path class="st1" d="M-324.9,270.5l-7.6,4.8c0.1,0.1,0.3,0.3,0.7,0.5c0.3,0.2,0.8,0.2,1.4,0.2c0.1,0,0.2,0,0.3,0
		c0.4,0,0.9-0.2,1.3-0.3c0.4-0.2,0.8-0.4,1.1-0.6c0.3-0.2,0.5-0.3,0.5-0.4l1.9,2.9c-0.2,0.1-0.5,0.3-0.9,0.6c-0.4,0.3-1,0.5-1.7,0.8
		c-0.7,0.3-1.5,0.4-2.3,0.4h-0.1c-1.2,0-2.3-0.3-3.3-0.8s-1.8-1.3-2.4-2.2c-0.6-1-0.9-2-0.9-3.2v-0.1c0-1,0.2-2,0.7-2.9
		s1.2-1.7,2-2.3c0.9-0.6,1.8-1,2.9-1.1c0.3,0,0.5,0,0.8,0c0.7,0,1.4,0.1,2.1,0.3c0.9,0.3,1.5,0.8,2.1,1.2c0.3,0.6,0.7,1,0.9,1.4
		C-325.1,270.1-325,270.4-324.9,270.5z M-333.6,273.1l4.3-2.7c-0.1-0.1-0.3-0.1-0.5-0.2c-0.2-0.1-0.6-0.1-0.9-0.1
		c-0.8,0-1.5,0.3-2.1,0.9C-333.3,271.5-333.6,272.3-333.6,273.1z"/>
	<path class="st1" d="M-324.1,267.3h4.3l1.8,3l1.9-3h4.2l-4.1,5.7l4.3,6.3h-4.4l-2-3.3l-2,3.3h-4.5l4.4-6.3L-324.1,267.3z"/>
</g>
<g>
	<g>
		<path class="st0" d="M-363,285.3v-0.1V285c0-0.9-0.8-1.5-2.5-1.4c-0.3,0-0.7,0.1-1.2,0.3l-0.4,0.1l-0.3,0.1l0.4-1.5
			c0.2,0,0.4-0.1,0.5-0.1c3.7-0.8,5.3,0.4,5.3,2.5v0.6v5h-1.7v-1c0,0.1-0.1,0.1-0.2,0.2c-0.7,0.8-1.7,1.1-2.8,0.9
			c-1.5-0.3-2.4-1.4-2.4-2.8c0-1.9,1.5-3.2,3.7-2.8c0.5,0.1,0.9,0.3,1.4,0.6l0.1,0.1l0.1,0.1V285.3L-363,285.3L-363,285.3z
			 M-365.3,289.4c1.3,0.2,2.3-0.5,2.3-1.5c0-0.9-0.7-1.6-1.9-1.6c-1.1,0-1.8,0.7-1.8,1.6C-366.6,288.6-366.1,289.2-365.3,289.4z"/>
		<path class="st0" d="M-351.8,282.5h1.7v1.2c0-0.1,0.1-0.2,0.1-0.3c0.4-0.7,0.9-1,1.7-1.1c0.2,0,0.5,0,0.8,0
			c0.9,0.1,1.4,0.5,1.7,1.2c0,0.1,0.1,0.2,0.1,0.2c0-0.1,0.1-0.1,0.1-0.2c0.6-0.8,1.2-1.2,2.2-1.2c1.7,0,2.5,1,2.5,3.6v0.3v4.4h-1.7
			v-4.5v-0.2v-0.5c0-0.9-0.7-1.5-1.6-1.3c-0.7,0.2-1.3,0.9-1.3,2.1v0.1v4.3h-1.7v-4.5v-0.3v-0.5v-0.1c0-0.1,0-0.2,0-0.4
			c-0.1-0.8-1.1-1.3-2-0.8c-0.4,0.3-0.8,0.7-0.9,1.6c0,0.1,0,0.3,0,0.4v0.3v4.3h-1.7L-351.8,282.5L-351.8,282.5z"/>
		<path class="st0" d="M-337.5,288.1c0.1,0.1,0.1,0.2,0.2,0.2c0.6,0.7,1.5,1,2.5,0.8c0.5-0.1,1-0.4,1.5-0.9c0.1-0.1,0.2-0.2,0.3-0.3
			l1.1,1.1c-0.7,0.9-1.7,1.4-2.8,1.6c-3.1,0.5-5.6-2-5-4.9c0.3-1.8,1.6-3,3.4-3.3c1.6-0.3,3,0.2,4.2,1.7c0.1,0.1,0.2,0.3,0.3,0.4
			L-337.5,288.1z M-335.2,283.9c-1-0.2-2,0.2-2.6,1.1c-0.4,0.6-0.5,1.3-0.4,2l4-2.6C-334.4,284.1-334.8,284-335.2,283.9z"/>
		<path class="st0" d="M-330.7,282.5h1.7v1.2c0.1-0.1,0.1-0.2,0.2-0.2c0.4-0.6,0.9-0.9,1.5-1c2.1-0.5,3.3,0.6,3.3,2.8v0.4v0.1v4.8
			h-1.7V286v-0.3v-0.1v-0.4c0-0.9-0.7-1.5-1.8-1.3c-0.5,0.1-0.9,0.4-1.2,0.9c-0.2,0.2-0.2,0.5-0.2,1v0.4v4.3h-1.7L-330.7,282.5
			L-330.7,282.5z"/>
		<path class="st0" d="M-316.7,288.6c0.1,0.1,0.2,0.1,0.2,0.2c0.7,0.4,1.3,0.5,1.8,0.4c0.7-0.1,1.1-0.4,1.2-0.7
			c0.2-0.6,0-0.9-0.8-1.2c-0.1,0-0.1,0-0.2-0.1l-0.7-0.2l-0.5-0.2l-0.3-0.1c-1-0.4-1.6-1.3-1.2-2.6c0.2-0.6,0.6-1.2,1.3-1.5
			c0.5-0.2,1.2-0.4,2.1-0.3c0.5,0.1,1,0.2,1.7,0.5c0.1,0,0.2,0.1,0.3,0.1l-0.6,1.3c-0.2-0.2-0.5-0.3-0.8-0.3
			c-0.5-0.2-0.9-0.2-1.2-0.2c-0.7,0.1-1,0.4-1.1,0.7c-0.2,0.5,0,0.8,0.5,1l0.3,0.1l0.2,0.1l0.6,0.2c1.5,0.5,2,1,2.1,2
			c0.2,1.7-1.5,3.2-3.9,2.7c-0.5-0.1-0.9-0.2-1.4-0.5c-0.1-0.1-0.3-0.1-0.4-0.2L-316.7,288.6z"/>
	</g>
	<path class="st0" d="M-375.7,292.4v-3c0.1,0.1,0.1,0.2,0.2,0.2c0.9,0.9,2,1.3,3.3,1.1c0.3,0,0.5-0.1,0.7-0.2
		c1.5-0.6,2.5-2.1,2.5-3.9c0-2.1-1.4-3.8-3.2-4.1c-1.5-0.3-2.5,0.1-3.4,1.1c-0.1,0.1-0.1,0.1-0.2,0.2v-1.2h-1.7v9.8H-375.7
		L-375.7,292.4z M-375.3,285c0.5-0.7,1.2-1.1,2.1-1.1c0.8,0,1.6,0.4,2.1,1.1c0.3,0.4,0.5,1,0.5,1.5c0,0.6-0.2,1.1-0.5,1.5
		c-0.5,0.7-1.2,1.1-2.1,1.1c-0.9,0-1.6-0.4-2.1-1.1c-0.3-0.4-0.5-1-0.5-1.5C-375.7,286-375.6,285.5-375.3,285z"/>
	<polygon class="st0" points="-358.7,292.4 -356.8,292.4 -352.6,282.6 -354.4,282.6 -356.6,287.9 -358.9,282.6 -360.8,282.6 
		-357.4,289.5 	"/>
	<path class="st0" d="M-318.8,289.1c-1.2,0.2-1.8-0.3-1.8-1.5v-0.3v-3.4h1.8v-1.3h-1.8v-1.9h-1.7v1.9h-0.7v1.3h0.7v3.4v0.3
		c0,2.3,1,3.2,3.1,3h0.3h0.2l0.2-1.5C-318.6,289.1-318.7,289.1-318.8,289.1z"/>
</g>
<g>
	<g>
		<path class="st0" d="M-413.1,279.7c-0.1-0.3-0.1-0.6-0.1-0.8c-1.4-0.5-2.8-1-4.3-1.6C-417.5,277.3-415.8,278.3-413.1,279.7z"/>
		<path class="st0" d="M-390.8,269.5c0,0-4.2-4.3-11.1-5.7c0,0-12.5-3.4-21,10.7c0,0,7-9.2,16.6-8.8c0,0,6.2,0,12.2,4.6
			c0,0,8.4,6.8,5.6,11.2c0,0-1,3-10.2,1.5c0,0-4.4-0.9-10.3-2.7c0.1,0.5,0.3,1.1,0.4,1.5c4.3,1.9,9.4,3.7,13.8,4
			c0,0,8.4,1.2,9.5-5.3C-385.4,280.5-384.3,275.7-390.8,269.5z"/>
	</g>
	<path class="st1" d="M-402.5,297.3c0,0-8.9-15.4-7.4-22.6c0,0,0.7-6.1,8.8-3.6c0,0,5.3,1.9,10.3,5.7c0,0-5.3-6.9-11.9-8.5
		c0,0-8.4-2.6-10,6.4C-412.8,274.6-415,283.9-402.5,297.3z"/>
</g>
</svg>
